<svg width="18" height="12" viewBox="0 0 18 12" fill="none" xmlns="http://www.w3.org/2000/svg">
<path d="M11.5436 0.137285L10.7769 0.903927C10.5913 1.08959 10.5943 1.39158 10.7837 1.57346L13.9367 4.6015H0.46875C0.209883 4.6015 0 4.81138 0 5.07025V6.164C0 6.42287 0.209883 6.63275 0.46875 6.63275H13.9367L10.7837 9.66079C10.5943 9.84269 10.5913 10.1447 10.777 10.3303L11.5436 11.097C11.7266 11.28 12.0234 11.28 12.2065 11.097L17.3549 5.94857C17.538 5.76552 17.538 5.46873 17.3549 5.28564L12.2064 0.137285C12.0234 -0.0457617 11.7266 -0.0457617 11.5436 0.137285Z" fill="#FF5050"/>
</svg>
